<svg id="Layer_1" data-name="Layer 1" xmlns="http://www.w3.org/2000/svg" viewBox="0 0 500 97"><defs><style>.cls-1{fill:#272643;}</style></defs><path class="cls-1" d="M15,21.89v13.5H41v15.4H15V76.5H-1v-70H41.5v15.4Z"/><path class="cls-1" d="M49,13.09a9,9,0,0,1,18,0,9,9,0,1,1-18,0Zm1.5,13.4h15v50h-15Z"/><path class="cls-1" d="M124.5,45.79V76.5h-15V48c0-6.2-3.9-9.1-8.7-9.1-5.5,0-9.3,3.2-9.3,10.3V76.5h-15v-50h15v4.7c2.7-3.7,7.7-6.1,14.3-6.1C115.9,25.09,124.5,32.29,124.5,45.79Z"/><path class="cls-1" d="M248.4,26.49v50h-15V71.8c-3.3,3.8-8.2,6.1-14.9,6.1-13.1,0-23.9-11.5-23.9-26.41s10.8-26.4,23.9-26.4c6.7,0,11.6,2.3,14.9,6.1v-4.7Zm-15,25c0-7.5-5-12.2-11.9-12.2s-11.9,4.7-11.9,12.2,5,12.21,11.9,12.21S233.4,59,233.4,51.49Z"/><path class="cls-1" d="M311.9,30.49c0,13.3-10.7,24-24.5,24H276.9v22h-16v-70h26.5C301.2,6.49,311.9,17.19,311.9,30.49Zm-16,0c0-5.1-3.6-9-8.5-9H276.9v18h10.5C292.3,39.49,295.9,35.59,295.9,30.49Z"/><path class="cls-1" d="M313.9,51.49A26.5,26.5,0,1,1,340.4,77.9,26.21,26.21,0,0,1,313.9,51.49Zm38,0c0-7.1-5-11.8-11.5-11.8s-11.5,4.7-11.5,11.8,5,11.81,11.5,11.81S351.9,58.6,351.9,51.49Z"/><path class="cls-1" d="M393.4,40.89V58.6c0,4.29,3.7,4.7,10.3,4.29V76.5c-19.6,2-25.3-3.9-25.3-17.9V40.89h-8V26.49h8V17l15-4.5v14h10.3v14.4Z"/><path class="cls-1" d="M429.7,40.89V58.6c0,4.29,3.7,4.7,10.3,4.29V76.5c-19.6,2-25.3-3.9-25.3-17.9V40.89h-8V26.49h8V17l15-4.5v14H440v14.4Z"/><path class="cls-1" d="M497,26.49,479.9,75c-5.6,15.9-14.5,22.2-28.51,21.5v-14c7,0,10.31-2.2,12.51-8.3L444,26.49H460.5l11.1,30.6,9.4-30.6Z"/><path class="cls-1" d="M177,77H145.63a.78.78,0,0,1-.69-1.15l1.38-2.61a.8.8,0,0,1,1-.35A27.65,27.65,0,0,0,173.59,70a.79.79,0,0,1,1.15.26l3,5.57A.78.78,0,0,1,177,77Z"/><path class="cls-1" d="M180.22,49a2.54,2.54,0,0,1,2.49,3.08,25.51,25.51,0,0,1-49.78,0A2.54,2.54,0,0,1,135.42,49Z"/><path class="cls-1" d="M188.32,2V12H174.15c-2.12,0-3.83-1.42-3.83-3.19V5.18C170.32,3.42,172,2,174.15,2Z"/><path class="cls-1" d="M188.32,15V41.32A4.68,4.68,0,0,1,183.64,46H173.32V15a2,2,0,0,1,2-2h11.05A2,2,0,0,1,188.32,15Z"/><rect class="cls-1" x="132" y="40.9" width="39" height="5" rx="2.42"/><path class="cls-1" d="M156.46,36.27c.57-4.73-1.32-9.25-5-11.56-3.93-2.5-10.4-2.72-12.76,1a4.75,4.75,0,0,0,1.91,6.81c2.74,1.34,5.22-2.49,9.81-1.66C153.32,31.35,155.25,34,156.46,36.27Z"/><path class="cls-1" d="M161.73,30a7.87,7.87,0,0,0,.49-8.35c-1.59-2.66-5.38-4.71-7.88-3.22a3.17,3.17,0,0,0-.89,4.63c1.23,1.61,3.85.07,6.33,1.92C161.32,26.09,161.68,28.25,161.73,30Z"/></svg>